<?xml version="1.0" encoding="utf-8"?>
<!-- Generator: Adobe Illustrator 16.0.0, SVG Export Plug-In . SVG Version: 6.00 Build 0)  -->
<!DOCTYPE svg PUBLIC "-//W3C//DTD SVG 1.1//EN" "http://www.w3.org/Graphics/SVG/1.1/DTD/svg11.dtd">
<svg version="1.1" id="Layer_1" xmlns="http://www.w3.org/2000/svg" xmlns:xlink="http://www.w3.org/1999/xlink" x="0px" y="0px"
	 width="148.667px" height="44.333px" viewBox="0 0 148.667 44.333" enable-background="new 0 0 148.667 44.333"
	 xml:space="preserve">
<g>
	<path fill="#409435" d="M146.5,15.29c-2.17,3.864-7.702,11.293-12.771,13.783c-5.066,2.276-10.562-6.433-12.743-16.104
		c-2.208-9.722,3.557-15.191,12.781-11.598C142.988,5.251,148.699,11.396,146.5,15.29"/>
	<path fill="#282727" d="M13.025,34.339H4.554c-0.237,0-0.338,0.091-0.338,0.308v1.232c0,1.508,1.321,2.771,3.049,2.771
		c0.813,0,1.491-0.276,1.864-0.678c0.745-0.798,1.05-1.292,1.252-1.292c0.069,0,0.136,0.032,0.204,0.062l2.135,0.985
		c0.135,0.061,0.203,0.125,0.203,0.216c0,0.215-0.406,1.018-1.423,1.879c-1.018,0.863-2.44,1.293-4.236,1.293
		c-3.693,0-6.099-2.094-6.099-5.235v-4.005c0-2.803,2.711-5.235,6.099-5.235c3.389,0,6.099,2.433,6.099,5.235v2.156
		C13.364,34.246,13.263,34.339,13.025,34.339 M10.315,31.659c0-1.325-1.458-2.556-3.05-2.556c-1.626,0-3.049,1.262-3.049,2.618
		c0,0.338,0.034,0.461,0.338,0.461h5.422C10.281,32.183,10.315,32.028,10.315,31.659"/>
	<path fill="#282727" d="M27.993,40.561c0,0.124-0.134,0.246-0.372,0.246h-2.982l-0.304-0.153l-4.303-5.857
		c-0.068-0.124-0.17-0.184-0.271-0.184s-0.203,0.029-0.272,0.124l-1.286,1.201V40.5c0,0.216-0.103,0.307-0.34,0.307h-2.372
		c-0.236,0-0.338-0.091-0.338,0.242V27.701c0-0.765,0.102-0.858,0.338-0.858h2.372c0.238,0,0.34,0.093,0.34,0.308v4.72
		c0,0.215,0.135,0.339,0.304,0.339c0.102,0,0.204-0.031,0.27-0.124l4.508-5.046l0.237-0.092h2.88c0.237,0,0.373,0.092,0.373,0.246
		c0,0.091-0.034,0.185-0.135,0.276l-4.406,4.616c-0.066,0.093-0.135,0.153-0.135,0.215s0.034,0.093,0.069,0.155l5.759,7.89
		C27.96,40.407,27.993,40.5,27.993,40.561"/>
	<path fill="#282727" d="M31.212,30.581c0,1.262,1.222,1.57,3.694,2.034c3.625,0.646,5.387,1.447,5.387,3.85
		c0,2.771-2.167,4.65-5.589,4.65h-1.017c-3.354,0-5.523-1.878-5.523-3.11c0-0.062,0.068-0.153,0.204-0.217l1.965-0.893
		c0.068-0.031,0.135-0.062,0.168-0.062c0.103,0,0.171,0.093,0.272,0.186c0.813,0.954,1.422,1.726,2.914,1.726h1.017
		c1.56,0,2.575-0.801,2.575-1.788c0-1.324-1.491-1.478-4.304-2.001c-3.219-0.585-4.743-1.479-4.743-3.788
		c0-2.681,2.202-4.528,5.455-4.528h1.017c3.353,0,5.522,1.878,5.522,3.11c0,0.093-0.068,0.154-0.205,0.216l-1.965,0.893
		c-0.067,0.03-0.168,0.061-0.203,0.061c-0.101,0-0.135-0.091-0.236-0.184c-0.847-0.986-1.458-1.725-2.914-1.725h-1.017
		C32.093,29.01,31.212,29.595,31.212,30.581"/>
	<path fill="#282727" d="M48.565,40.807c-1.964,0-2.981-1.015-3.286-1.015c-0.169,0-0.271,0.123-0.271,0.338v2.896
		c0,0.216-0.102,0.308-0.34,0.308h-2.371c-0.237,0-0.338-0.092-0.338-0.308V27.254c0-0.215,0.101-0.307,0.338-0.307h2.034
		c0.236,0,0.336,0.092,0.336,0.307v0.37c0,0.216,0.103,0.339,0.238,0.339c0.441,0,1.39-1.016,3.389-1.016
		c3.421,0,5.861,2.125,5.861,5.235v3.389C54.157,38.589,51.717,40.807,48.565,40.807 M51.107,32.183c0-1.51-1.322-2.771-3.049-2.771
		c-1.694,0-3.049,1.261-3.049,2.771v3.389c0,1.509,1.355,2.771,3.049,2.771c1.727,0,3.049-1.262,3.049-2.771V32.183z"/>
	<path fill="#282727" d="M61.816,41.115c-3.693,0-6.099-2.094-6.099-5.235v-4.005c0-3.142,2.406-5.235,6.099-5.235
		c3.694,0,6.099,2.125,6.099,5.235v4.005C67.915,39.021,65.51,41.115,61.816,41.115 M64.866,31.875c0-1.509-1.355-2.771-3.05-2.771
		s-3.047,1.262-3.047,2.771v4.005c0,1.508,1.32,2.771,3.047,2.771c1.694,0,3.05-1.263,3.05-2.771V31.875z"/>
	<path fill="#282727" d="M81.81,40.807h-2.371c-0.238,0-0.339-0.091-0.339-0.307v-8.317c0-1.51-1.322-2.771-3.049-2.771
		c-1.694,0-3.051,1.261-3.051,2.771V40.5c0,0.216-0.1,0.307-0.337,0.307H70.29c-0.237,0-0.338-0.091-0.338-0.307V27.254
		c0-0.215,0.101-0.307,0.338-0.307h2.035c0.236,0,0.339,0.092,0.339,0.307v0.37c0,0.216,0.101,0.339,0.237,0.339
		c0.439,0,1.389-1.016,3.388-1.016c3.423,0,5.86,2.125,5.86,5.235V40.5C82.149,40.716,82.048,40.807,81.81,40.807"/>
	<path fill="#282727" d="M95.903,34.339h-8.47c-0.237,0-0.338,0.091-0.338,0.308v1.232c0,1.508,1.319,2.771,3.05,2.771
		c0.812,0,1.49-0.276,1.862-0.678c0.744-0.798,1.05-1.292,1.253-1.292c0.067,0,0.135,0.032,0.205,0.062l2.135,0.985
		c0.133,0.061,0.202,0.125,0.202,0.216c0,0.215-0.408,1.018-1.423,1.879c-1.019,0.863-2.44,1.293-4.235,1.293
		c-3.696,0-6.101-2.094-6.101-5.235v-4.005c0-2.803,2.712-5.235,6.101-5.235c3.388,0,6.098,2.433,6.098,5.235v2.156
		C96.243,34.246,96.141,34.339,95.903,34.339 M93.191,31.659c0-1.325-1.455-2.556-3.046-2.556c-1.627,0-3.05,1.262-3.05,2.618
		c0,0.338,0.033,0.461,0.338,0.461h5.421C93.161,32.183,93.191,32.028,93.191,31.659"/>
	<path fill="#282727" d="M109.89,40.807h-2.372c-0.238,0-0.339-0.091-0.339-0.307v-8.317c0-1.51-1.319-2.771-3.051-2.771
		c-1.692,0-3.049,1.261-3.049,2.771V40.5c0,0.216-0.101,0.307-0.339,0.307H98.37c-0.237,0-0.34-0.091-0.34-0.307V27.254
		c0-0.215,0.103-0.307,0.34-0.307h2.033c0.237,0,0.338,0.092,0.338,0.307v0.37c0,0.216,0.103,0.339,0.239,0.339
		c0.44,0,1.389-1.016,3.388-1.016c3.423,0,5.861,2.125,5.861,5.235V40.5C110.228,40.716,110.127,40.807,109.89,40.807"/>
	<path fill="#282727" d="M118.832,41.084c-2.778,0-5.456-2.124-5.456-5.205v-6.162c0-0.215-0.102-0.306-0.34-0.306h-1.862
		c-0.237,0-0.339-0.093-0.339-0.308l0.069-1.079l3.895-3.758l0.237-0.092h1.05c0.237,0,0.339,0.092,0.339,0.307v2.158
		c0,0.215,0.103,0.308,0.337,0.308h2.374c0.237,0,0.34,0.092,0.34,0.307v1.85c0,0.215-0.103,0.308-0.34,0.308h-2.374
		c-0.234,0-0.337,0.091-0.337,0.306v6.162c0,0.646,0.239,1.201,0.746,1.786c0.304,0.34,1.018,0.555,2.033,0.956
		c0.169,0.061,0.272,0.123,0.272,0.307v1.848C119.476,41.055,119.307,41.084,118.832,41.084"/>
	<path fill="#FFFFFF" d="M130.692,17.743h4.553v2.405h-4.667v-2.289h-2.289V10.88h2.289V8.592h4.667v2.289h2.288v4.691h-6.841
		V17.743z M130.692,10.995 M130.692,13.167h4.437v-2.171h-4.437V13.167z"/>
</g>
</svg>
